<svg xmlns="http://www.w3.org/2000/svg" viewBox="0 0 180 180" xml:space="preserve"><path fill="#F2F2F2" d="M154.622 89.999c0 35.69-28.932 64.623-64.621 64.623-35.691 0-64.623-28.933-64.623-64.623 0-35.689 28.932-64.621 64.623-64.621 35.689 0 64.621 28.932 64.621 64.621z"/><path fill="#F2F2F2" d="M69.481 111.17H49.385a2.835 2.835 0 0 1-2.827-2.825v-.727a2.835 2.835 0 0 1 2.827-2.827h20.097a2.835 2.835 0 0 1 2.827 2.827v.727a2.836 2.836 0 0 1-2.828 2.825zM73.878 123.574H48.6a2.833 2.833 0 0 1-2.825-2.827v-.726a2.833 2.833 0 0 1 2.825-2.826h25.278a2.833 2.833 0 0 1 2.826 2.826v.726a2.834 2.834 0 0 1-2.826 2.827zM91.258 123.574h-9.334a2.834 2.834 0 0 1-2.825-2.827v-.726a2.833 2.833 0 0 1 2.825-2.826h9.334a2.833 2.833 0 0 1 2.825 2.826v.726a2.834 2.834 0 0 1-2.825 2.827z"/><path fill="#F2F2F2" d="M62.844 114.467v-.726a2.833 2.833 0 0 1 2.826-2.826h-8.512a2.833 2.833 0 0 1 2.825 2.826v.726a2.833 2.833 0 0 1-2.825 2.826h8.512a2.834 2.834 0 0 1-2.826-2.826zM71.113 76.628H54.729a2.312 2.312 0 0 1-2.305-2.305v-.592a2.31 2.31 0 0 1 2.305-2.304h16.384a2.31 2.31 0 0 1 2.303 2.304v.592a2.311 2.311 0 0 1-2.303 2.305zM74.697 86.739H54.088a2.31 2.31 0 0 1-2.304-2.304v-.593a2.31 2.31 0 0 1 2.304-2.304h20.609A2.31 2.31 0 0 1 77 83.842v.593a2.31 2.31 0 0 1-2.303 2.304zM88.865 86.739h-7.608a2.31 2.31 0 0 1-2.305-2.304v-.593a2.311 2.311 0 0 1 2.305-2.304h7.608a2.311 2.311 0 0 1 2.304 2.304v.593a2.31 2.31 0 0 1-2.304 2.304z"/><path fill="#F2F2F2" d="M65.7 79.315v-.592a2.31 2.31 0 0 1 2.304-2.304h-6.938a2.31 2.31 0 0 1 2.304 2.304v.592a2.311 2.311 0 0 1-2.304 2.304h6.938a2.311 2.311 0 0 1-2.304-2.304zM117.585 121.151H98.786a2.651 2.651 0 0 1-2.644-2.644v-.679a2.65 2.65 0 0 1 2.644-2.644h18.799a2.65 2.65 0 0 1 2.643 2.644v.679a2.65 2.65 0 0 1-2.643 2.644zM116.098 132.754H92.451a2.651 2.651 0 0 1-2.644-2.644v-.679a2.65 2.65 0 0 1 2.644-2.643h23.646a2.65 2.65 0 0 1 2.644 2.643v.679a2.651 2.651 0 0 1-2.643 2.644zM132.354 132.754h-8.73a2.651 2.651 0 0 1-2.644-2.644v-.679a2.65 2.65 0 0 1 2.644-2.643h8.73a2.65 2.65 0 0 1 2.644 2.643v.679a2.65 2.65 0 0 1-2.644 2.644z"/><path fill="#F2F2F2" d="M113.744 124.331v-.679a2.65 2.65 0 0 1 2.644-2.644h-13.051a2.65 2.65 0 0 1 2.644 2.644v.679a2.652 2.652 0 0 1-2.644 2.645h13.051a2.653 2.653 0 0 1-2.644-2.645zM121.744 87.544h-16.385a2.311 2.311 0 0 1-2.304-2.305v-.591a2.311 2.311 0 0 1 2.304-2.305h16.385a2.311 2.311 0 0 1 2.304 2.305v.591a2.311 2.311 0 0 1-2.304 2.305zM125.327 97.655h-20.606a2.31 2.31 0 0 1-2.305-2.304v-.591a2.31 2.31 0 0 1 2.305-2.304h20.606a2.31 2.31 0 0 1 2.305 2.304v.592a2.31 2.31 0 0 1-2.305 2.303zM139.497 97.655h-7.609a2.311 2.311 0 0 1-2.304-2.304v-.591a2.311 2.311 0 0 1 2.304-2.304h7.609a2.31 2.31 0 0 1 2.304 2.304v.592a2.31 2.31 0 0 1-2.304 2.303z"/><path fill="#F2F2F2" d="M116.332 90.231v-.591a2.311 2.311 0 0 1 2.305-2.305h-6.939a2.311 2.311 0 0 1 2.305 2.305v.591a2.31 2.31 0 0 1-2.305 2.304h6.939a2.31 2.31 0 0 1-2.305-2.304z"/><g><path fill="#333" d="M51.105 63.518h-8.464a.384.384 0 0 1 0-.769h8.464a.385.385 0 0 1 0 .769zM50.381 67.87h-1.367a.383.383 0 1 1 0-.768h1.367a.385.385 0 1 1 0 .768zM46.499 67.87h-5.154a.384.384 0 1 1 0-.768h5.154a.383.383 0 1 1 0 .768zM52.81 70.734h-6.223a.384.384 0 1 1 0-.768h6.223a.385.385 0 0 1 0 .768z"/></g><g><path fill="#333" d="M51.557 94.354h-8.961a.383.383 0 1 1 0-.768h8.961a.385.385 0 1 1 0 .768zM50.79 98.964h-1.448a.384.384 0 0 1 0-.768h1.448a.383.383 0 1 1 0 .768zM46.68 98.964h-5.457a.385.385 0 0 1 0-.768h5.457a.384.384 0 1 1 0 .768zM53.36 101.996h-6.588a.384.384 0 0 1 0-.769h6.588a.385.385 0 0 1 0 .769z"/></g><g><path fill="#333" d="M69.928 136.418h-8.961a.385.385 0 0 1 0-.769h8.961a.384.384 0 1 1 0 .769zM63.182 131.809h-1.446a.384.384 0 0 1 0-.769h1.446a.385.385 0 0 1 0 .769zM71.302 131.809h-5.457a.384.384 0 0 1 0-.769h5.457a.385.385 0 0 1 0 .769zM65.752 128.776h-6.587a.383.383 0 1 1 0-.768h6.587a.384.384 0 1 1 0 .768z"/></g><g><path fill="#333" d="M122.386 119.5h11.021v.768h-11.021zM125.109 114.6h-1.779a.385.385 0 0 1 0-.769h1.779a.384.384 0 0 1 0 .769zM135.096 114.6h-6.711a.385.385 0 0 1 0-.769h6.711a.384.384 0 0 1 0 .769zM128.27 110.869h-8.101a.385.385 0 1 1 0-.768h8.101a.383.383 0 1 1 0 .768z"/></g><g><path fill="#333" d="M36.677 91.777h-3.428a.384.384 0 0 1 0-.769h3.428a.385.385 0 0 1 0 .769z"/><path fill="#333" d="M34.888 93.64a.385.385 0 0 1-.383-.385v-3.872a.383.383 0 1 1 .768 0v3.872a.386.386 0 0 1-.385.385z"/></g><g><path fill="#333" d="M129.346 104.58h-3.427a.383.383 0 1 1 0-.768h3.427a.385.385 0 0 1 0 .768z"/><path fill="#333" d="M127.558 106.443a.384.384 0 0 1-.384-.385v-3.873a.383.383 0 1 1 .768 0v3.873a.385.385 0 0 1-.384.385z"/></g><g><path fill="#333" d="M56.234 133.212H52.81a.384.384 0 1 1 0-.769h3.425a.385.385 0 1 1-.001.769z"/><path fill="#333" d="M54.448 135.074a.385.385 0 0 1-.385-.385v-3.872a.384.384 0 1 1 .768 0v3.872a.383.383 0 0 1-.383.385z"/></g><g><path fill="#FFDB76" d="M113.438 113.677c2.311-3.878 3.663-8.396 3.663-13.239 0-14.324-11.61-25.936-25.935-25.936s-25.935 11.611-25.935 25.936c0 4.844 1.352 9.361 3.664 13.239h-.101c10.639 16.483 9.536 24.038 9.536 24.038h25.671s-1.108-7.555 9.53-24.038h-.093z"/><path fill="#B2B2B2" d="m105.792 96.501 1.292-.449a19.768 19.768 0 0 0-.089-1.247l-1.345-.256a11.985 11.985 0 0 0-.124-.735l1.186-.678c-.09-.407-.195-.81-.317-1.209l-1.364-.01c-.08-.235-.161-.469-.254-.7l1.039-.883a17.54 17.54 0 0 0-.53-1.127l-1.348.242c-.121-.217-.248-.43-.381-.641l.862-1.062a15.892 15.892 0 0 0-.732-1.01l-1.272.488c-.157-.19-.319-.378-.495-.562l.651-1.196a14.739 14.739 0 0 0-.906-.86l-1.164.716a9.9 9.9 0 0 0-.586-.462l.418-1.298c-.167-.121-.341-.24-.513-.355a15.946 15.946 0 0 0-.536-.325l-1.01.914a18.503 18.503 0 0 0-.667-.349l.18-1.353a17.31 17.31 0 0 0-1.154-.474l-.828 1.085a16.98 16.98 0 0 0-.718-.223l-.075-1.358a15.292 15.292 0 0 0-1.224-.256l-.613 1.223a9.868 9.868 0 0 0-.693-.079c-.017-.003-.031-.006-.049-.006l-.326-1.322a5.688 5.688 0 0 0-.363-.018 8.213 8.213 0 0 0-.415-.012 9.324 9.324 0 0 0-.473 0l-.265.934-.113.381c-.245.01-.496.029-.744.056l-.562-1.243c-.415.052-.828.12-1.237.204l-.13 1.358a19.83 19.83 0 0 0-.724.19l-.785-1.118a17.1 17.1 0 0 0-1.171.429l.119 1.361c-.231.099-.453.205-.673.318l-.978-.958a16.46 16.46 0 0 0-1.073.637l.366 1.312c-.204.142-.403.289-.603.441l-1.137-.761c-.32.263-.632.536-.937.825l.604 1.223a12.49 12.49 0 0 0-.511.541l-1.258-.536c-.265.318-.527.642-.773.983l.822 1.094a9.316 9.316 0 0 0-.21.309c-.063.104-.133.211-.197.317l-1.335-.3c-.207.363-.398.735-.577 1.107l1.004.926a16.11 16.11 0 0 0-.285.69l-1.364-.05c-.136.395-.259.793-.366 1.193l1.16.725c-.059.242-.111.487-.153.732l-1.35.202c-.059.412-.109.825-.139 1.239l1.271.496c-.012.249-.017.497-.015.748l-1.286.45c.013.414.037.833.089 1.246l1.339.256c.035.245.075.49.124.735l-1.186.678c.091.407.196.809.32 1.209l1.367.006c.075.236.162.47.255.701l-1.046.885c.162.384.344.756.534 1.128l1.345-.245c.124.22.247.43.381.641l-.862 1.063c.228.344.478.681.732 1.007l1.277-.487c.155.193.316.381.487.564l-.648 1.197c.288.297.594.583.905.859l1.165-.714c.188.157.388.312.586.461l-.419 1.298c.171.118.341.24.521.353.173.115.351.221.529.325l1.013-.914c.223.124.441.239.664.349l-.177 1.355c.384.174.765.328 1.154.471l.828-1.082c.236.081.478.15.714.22l.075 1.358c.411.105.813.188 1.224.258l.614-1.224c.248.038.494.066.741.088l.326 1.323c.421.023.837.037 1.252.028l.381-1.314c.245-.013.493-.029.741-.056l.565 1.243c.412-.054.825-.124 1.234-.208l.13-1.354c.245-.059.484-.122.724-.194l.784 1.119c.398-.124.785-.271 1.175-.429l-.122-1.358c.23-.102.453-.205.678-.321l.976.959c.362-.197.721-.413 1.069-.638l-.365-1.312c.204-.139.405-.286.605-.439l1.134.759c.319-.263.637-.536.938-.821l-.604-1.224c.18-.175.346-.357.514-.542l1.252.533c.271-.313.529-.64.775-.979l-.819-1.094.208-.312c.069-.104.133-.208.196-.314l1.336.297c.207-.363.398-.735.576-1.107l-1.004-.923c.102-.228.195-.459.283-.692l1.366.049c.136-.396.257-.794.367-1.191l-1.157-.724c.056-.242.107-.49.15-.732l1.347-.205c.063-.412.112-.825.145-1.237l-1.274-.499c.011-.247.017-.496.014-.744zM98.503 86.46a12.478 12.478 0 0 1 4.728 6.854l-8.007 1.719a4.336 4.336 0 0 0-1.169-1.696l4.448-6.877zm-7.913-2.364a10.54 10.54 0 0 1 1.152 0c1.933.087 3.865.624 5.646 1.644l-4.451 6.879a4.288 4.288 0 0 0-2.019-.373l-1.723-8.009c.459-.072.927-.121 1.395-.141zm-2.695.421 1.722 8.008a4.334 4.334 0 0 0-1.584 1.04c-.038.04-.075.085-.115.128l-6.873-4.447a12.442 12.442 0 0 1 6.85-4.729zm-7.574 5.843 6.872 4.444a4.42 4.42 0 0 0-.368 2.028l-8.004 1.717a12.468 12.468 0 0 1 1.5-8.189zm3.504 16.34a12.45 12.45 0 0 1-4.725-6.851l8.001-1.716a4.446 4.446 0 0 0 1.041 1.575c.044.04.09.078.13.115l-4.447 6.877zm1.117.724 4.45-6.876c.359.161.747.276 1.139.335.297.043.592.052.883.034l1.719 8.007a12.465 12.465 0 0 1-8.191-1.5zm9.493 1.223-1.723-8.011a4.304 4.304 0 0 0 1.693-1.165l6.879 4.447a12.462 12.462 0 0 1-6.849 4.729zm7.57-5.844-6.876-4.447a4.307 4.307 0 0 0 .372-2.025l8.007-1.716a12.442 12.442 0 0 1-1.503 8.188z"/><path fill="#333" d="M96.227 120.925v20.356h1.114v-20.356a1.478 1.478 0 1 0-1.114 0zM84.994 120.925v20.356h1.115v-20.356a1.478 1.478 0 1 0-1.115 0z"/><g><path fill="#565656" d="M91.167 138.041H78.332v6.631l2.718 4.732h20.235l2.718-4.732v-6.631z"/><path fill="#333" d="M105.369 137.142c0 .608-.465 1.105-1.048 1.105H78.009c-.574 0-1.044-.497-1.044-1.105 0-.611.47-1.108 1.044-1.108h26.312c.583-.001 1.048.496 1.048 1.108zM87.234 140.058h17.087c.583 0 1.048.495 1.048 1.107 0 .609-.465 1.105-1.048 1.105H78.009c-.574 0-1.044-.495-1.044-1.105 0-.612.47-1.107 1.044-1.107h9.225zM104.109 145.896c0 .557-.429 1.006-.953 1.006H79.183c-.528 0-.955-.449-.955-1.006 0-.557.427-1.01.955-1.01h23.974c.524.001.952.454.952 1.01z"/></g><g><path fill="#333" d="M119.603 91.488V59.235L91.17 72.102 62.731 59.235v32.253h56.872z"/><path fill="#333" d="M119.603 59.235v6.99L91.164 79.084 62.732 66.217v-6.981L91.17 72.103l28.433-12.868z"/><path fill="#757575" d="m91.168 69.122-.001 2.99-49.139-19.684v-2.719l.021-.009 49.118 19.422z"/><path fill="#333" d="m91.167 69.122-49.14-19.431 49.502-19.095 47.864 19.113zM135.879 51.652h2.874v30.18h-2.874z"/><path fill="#333" d="M141.867 82.911a4.55 4.55 0 1 0-9.101 0 4.554 4.554 0 0 0 4.551 4.553 4.552 4.552 0 0 0 4.55-4.553z"/><path fill="#333" d="M140.738 85.19h-5.746c-.96 2.569-3.086 9.631-1.88 19.308h.003c0 .581 2.123 1.053 4.744 1.053 2.619 0 4.742-.472 4.742-1.053 1.21-9.677-.907-16.738-1.863-19.308z"/><g><path fill="#B2B2B2" d="M91.168 69.122v2.99l48.225-19.684v-2.719l-.021-.009-48.204 19.422z"/></g></g></g><g><path fill="#FFF" d="M72.614 41.007a3.065 3.065 0 0 1-3.063-3.061 3.062 3.062 0 0 1-3.061 3.061 3.063 3.063 0 0 1 3.061 3.062 3.066 3.066 0 0 1 3.063-3.062zM76.112 43.89a1.463 1.463 0 0 1-1.463-1.462c0 .807-.653 1.462-1.462 1.462.809 0 1.462.656 1.462 1.462 0-.806.657-1.462 1.463-1.462zM72.729 32.058a1.464 1.464 0 0 1-1.464-1.462c0 .806-.654 1.462-1.462 1.462.808 0 1.462.656 1.462 1.462a1.466 1.466 0 0 1 1.464-1.462z"/></g></svg>